# Blender 4.4.3
# www.blender.org
o Screen
v -1.982497 -0.909660 -2.172253
v 2.024518 -0.909660 -2.172257
v -1.982497 1.679691 -2.107177
v 2.024518 1.679691 -2.107181
v -1.734150 -0.908783 -2.207164
v -1.484967 -0.908022 -2.237453
v -1.235067 -0.907377 -2.263106
v -0.984570 -0.906849 -2.284113
v -0.733594 -0.906438 -2.300461
v -0.482259 -0.906144 -2.312144
v -0.230684 -0.905968 -2.319156
v 0.021010 -0.905910 -2.321494
v 0.272705 -0.905968 -2.319157
v 0.524280 -0.906144 -2.312145
v 0.775615 -0.906438 -2.300463
v 1.026591 -0.906849 -2.284115
v 1.277088 -0.907377 -2.263109
v 1.526988 -0.908022 -2.237456
v 1.776171 -0.908783 -2.207167
v -1.987623 1.519830 -2.135961
v -1.992070 1.359346 -2.161482
v -1.995837 1.198317 -2.183728
v -1.998921 1.036819 -2.202689
v -2.001322 0.874928 -2.218355
v -2.003037 0.712723 -2.230720
v -2.004067 0.550279 -2.239777
v -2.004410 0.387675 -2.245522
v -2.004067 0.224987 -2.247952
v -2.003037 0.062293 -2.247067
v -2.001322 -0.100329 -2.242866
v -1.998921 -0.262802 -2.235351
v -1.995837 -0.425049 -2.224527
v -1.992070 -0.586992 -2.210397
v -1.987623 -0.748555 -2.192971
v 2.029644 1.519830 -2.135965
v 2.034091 1.359346 -2.161486
v 2.037858 1.198317 -2.183732
v 2.040942 1.036819 -2.202693
v 2.043343 0.874928 -2.218359
v 2.045058 0.712723 -2.230724
v 2.046088 0.550279 -2.239781
v 2.046431 0.387675 -2.245526
v 2.046088 0.224987 -2.247956
v 2.045058 0.062293 -2.247071
v 2.043343 -0.100329 -2.242870
v 2.040942 -0.262802 -2.235355
v 2.037858 -0.425049 -2.224531
v 2.034091 -0.586992 -2.210402
v 2.029644 -0.748555 -2.192975
v 1.776171 1.680568 -2.142091
v 1.526988 1.681329 -2.172379
v 1.277088 1.681974 -2.198033
v 1.026591 1.682502 -2.219038
v 0.775615 1.682913 -2.235386
v 0.524279 1.683206 -2.247069
v 0.272705 1.683383 -2.254080
v 0.021010 1.683441 -2.256418
v -0.230684 1.683383 -2.254080
v -0.482259 1.683206 -2.247068
v -0.733594 1.682913 -2.235385
v -0.984570 1.682502 -2.219036
v -1.235068 1.681974 -2.198030
v -1.484967 1.681329 -2.172376
v -1.734150 1.680568 -2.142087
v 1.780661 -0.747675 -2.227974
v 1.530841 -0.746912 -2.258340
v 1.280302 -0.746266 -2.284059
v 1.029163 -0.745736 -2.305118
v 0.777545 -0.745324 -2.321508
v 0.525567 -0.745030 -2.333220
v 0.273349 -0.744853 -2.340250
v 0.021010 -0.744794 -2.342593
v -0.231328 -0.744853 -2.340249
v -0.483547 -0.745030 -2.333220
v -0.735525 -0.745324 -2.321507
v -0.987143 -0.745736 -2.305116
v -1.238281 -0.746266 -2.284056
v -1.488820 -0.746912 -2.258337
v -1.738641 -0.747675 -2.227970
v 1.784557 -0.586111 -2.245479
v 1.534184 -0.585346 -2.275912
v 1.283090 -0.584698 -2.301687
v 1.031395 -0.584168 -2.322794
v 0.779220 -0.583755 -2.339220
v 0.526684 -0.583460 -2.350958
v 0.273907 -0.583283 -2.358003
v 0.021010 -0.583224 -2.360352
v -0.231887 -0.583283 -2.358002
v -0.484664 -0.583460 -2.350957
v -0.737200 -0.583755 -2.339218
v -0.989375 -0.584168 -2.322792
v -1.241069 -0.584698 -2.301685
v -1.492163 -0.585346 -2.275909
v -1.742536 -0.586111 -2.245475
v 1.787857 -0.424166 -2.259673
v 1.537015 -0.423399 -2.290164
v 1.285451 -0.422750 -2.315987
v 1.033286 -0.422219 -2.337133
v 0.780639 -0.421805 -2.353590
v 0.527630 -0.421510 -2.365350
v 0.274380 -0.421332 -2.372408
v 0.021010 -0.421273 -2.374762
v -0.232360 -0.421332 -2.372408
v -0.485610 -0.421510 -2.365349
v -0.738618 -0.421805 -2.353588
v -0.991265 -0.422219 -2.337131
v -1.243431 -0.422750 -2.315985
v -1.494994 -0.423399 -2.290160
v -1.745836 -0.424166 -2.259670
v 1.790559 -0.261917 -2.270552
v 1.539333 -0.261150 -2.301089
v 1.287385 -0.260500 -2.326952
v 1.034834 -0.259968 -2.348130
v 0.781801 -0.259553 -2.364612
v 0.528405 -0.259257 -2.376390
v 0.274768 -0.259080 -2.383459
v 0.021010 -0.259020 -2.385816
v -0.232748 -0.259080 -2.383458
v -0.486385 -0.259257 -2.376389
v -0.739780 -0.259553 -2.364610
v -0.992814 -0.259968 -2.348128
v -1.245364 -0.260500 -2.326949
v -1.497313 -0.261150 -2.301085
v -1.748538 -0.261917 -2.270548
v 1.792662 -0.099443 -2.278108
v 1.541138 -0.098675 -2.308681
v 1.288890 -0.098024 -2.334575
v 1.036039 -0.097491 -2.355778
v 0.782705 -0.097076 -2.372280
v 0.529008 -0.096780 -2.384072
v 0.275069 -0.096602 -2.391150
v 0.021010 -0.096543 -2.393509
v -0.233049 -0.096602 -2.391149
v -0.486988 -0.096780 -2.384071
v -0.740684 -0.097076 -2.372278
v -0.994018 -0.097491 -2.355776
v -1.246869 -0.098024 -2.334573
v -1.499117 -0.098675 -2.308678
v -1.750641 -0.099443 -2.278104
v 1.794164 0.063180 -2.282339
v 1.542427 0.063949 -2.312938
v 1.289965 0.064600 -2.338854
v 1.036900 0.065133 -2.360075
v 0.783351 0.065548 -2.376591
v 0.529439 0.065845 -2.388393
v 0.275285 0.066023 -2.395476
v 0.021010 0.066082 -2.397838
v -0.233265 0.066023 -2.395476
v -0.487419 0.065845 -2.388392
v -0.741330 0.065548 -2.376589
v -0.994879 0.065133 -2.360073
v -1.247945 0.064600 -2.338851
v -1.500406 0.063949 -2.312935
v -1.752144 0.063180 -2.282335
v 1.795066 0.225874 -2.283242
v 1.543201 0.226643 -2.313857
v 1.290611 0.227295 -2.339786
v 1.037416 0.227828 -2.361018
v 0.783738 0.228244 -2.377542
v 0.529697 0.228540 -2.389350
v 0.275414 0.228719 -2.396437
v 0.021010 0.228778 -2.398800
v -0.233394 0.228719 -2.396436
v -0.487677 0.228540 -2.389349
v -0.741718 0.228244 -2.377540
v -0.995396 0.227828 -2.361016
v -1.248590 0.227295 -2.339783
v -1.501180 0.226643 -2.313854
v -1.753046 0.225874 -2.283238
v 1.795367 0.388562 -2.280818
v 1.543459 0.389331 -2.311438
v 1.290826 0.389983 -2.337371
v 1.037589 0.390517 -2.358607
v 0.783868 0.390932 -2.375134
v 0.529784 0.391229 -2.386944
v 0.275457 0.391407 -2.394032
v 0.021010 0.391466 -2.396395
v -0.233437 0.391407 -2.394032
v -0.487763 0.391229 -2.386943
v -0.741847 0.390932 -2.375132
v -0.995568 0.390517 -2.358605
v -1.248806 0.389983 -2.337369
v -1.501438 0.389331 -2.311435
v -1.753346 0.388562 -2.280814
v 1.795066 0.551166 -2.275067
v 1.543201 0.551935 -2.305681
v 1.290611 0.552587 -2.331611
v 1.037416 0.553120 -2.352843
v 0.783738 0.553536 -2.369366
v 0.529697 0.553833 -2.381175
v 0.275414 0.554011 -2.388262
v 0.021010 0.554070 -2.390625
v -0.233394 0.554011 -2.388261
v -0.487677 0.553833 -2.381174
v -0.741718 0.553536 -2.369365
v -0.995396 0.553120 -2.352840
v -1.248590 0.552587 -2.331608
v -1.501180 0.551935 -2.305678
v -1.753046 0.551166 -2.275063
v 1.794164 0.713609 -2.265992
v 1.542427 0.714378 -2.296591
v 1.289965 0.715029 -2.322507
v 1.036900 0.715563 -2.343728
v 0.783351 0.715978 -2.360244
v 0.529439 0.716274 -2.372046
v 0.275285 0.716452 -2.379129
v 0.021010 0.716512 -2.381491
v -0.233265 0.716452 -2.379129
v -0.487419 0.716274 -2.372045
v -0.741330 0.715978 -2.360242
v -0.994879 0.715563 -2.343726
v -1.247945 0.715029 -2.322505
v -1.500406 0.714378 -2.296588
v -1.752144 0.713609 -2.265988
v 1.792662 0.875814 -2.253597
v 1.541138 0.876582 -2.284171
v 1.288890 0.877233 -2.310065
v 1.036039 0.877766 -2.331268
v 0.782705 0.878181 -2.347769
v 0.529008 0.878477 -2.359562
v 0.275069 0.878655 -2.366639
v 0.021010 0.878714 -2.368999
v -0.233049 0.878655 -2.366638
v -0.486988 0.878477 -2.359561
v -0.740684 0.878181 -2.347768
v -0.994018 0.877766 -2.331266
v -1.246869 0.877233 -2.310062
v -1.499117 0.876582 -2.284168
v -1.750641 0.875814 -2.253594
v 1.790559 1.037703 -2.237889
v 1.539333 1.038471 -2.268426
v 1.287385 1.039121 -2.294289
v 1.034834 1.039653 -2.315467
v 0.781801 1.040067 -2.331949
v 0.528405 1.040363 -2.343728
v 0.274768 1.040541 -2.350796
v 0.021010 1.040600 -2.353153
v -0.232748 1.040541 -2.350796
v -0.486385 1.040363 -2.343727
v -0.739780 1.040067 -2.331948
v -0.992814 1.039653 -2.315465
v -1.245364 1.039121 -2.294287
v -1.497313 1.038471 -2.268423
v -1.748538 1.037703 -2.237885
v 1.787857 1.199200 -2.218874
v 1.537015 1.199967 -2.249365
v 1.285451 1.200616 -2.275188
v 1.033286 1.201147 -2.296334
v 0.780639 1.201561 -2.312791
v 0.527630 1.201856 -2.324551
v 0.274380 1.202034 -2.331609
v 0.021010 1.202093 -2.333962
v -0.232360 1.202034 -2.331609
v -0.485610 1.201856 -2.324550
v -0.738618 1.201561 -2.312789
v -0.991265 1.201147 -2.296332
v -1.243431 1.200616 -2.275186
v -1.494994 1.199967 -2.249362
v -1.745836 1.199200 -2.218871
v 1.784557 1.360228 -2.196563
v 1.534184 1.360993 -2.226996
v 1.283090 1.361640 -2.252772
v 1.031395 1.362171 -2.273878
v 0.779220 1.362584 -2.290304
v 0.526684 1.362879 -2.302042
v 0.273907 1.363056 -2.309087
v 0.021010 1.363115 -2.311436
v -0.231887 1.363056 -2.309086
v -0.484664 1.362879 -2.302041
v -0.737200 1.362584 -2.290302
v -0.989375 1.362171 -2.273875
v -1.241069 1.361640 -2.252769
v -1.492163 1.360993 -2.226993
v -1.742536 1.360228 -2.196559
v 1.780661 1.520709 -2.170964
v 1.530841 1.521472 -2.201330
v 1.280302 1.522119 -2.227049
v 1.029163 1.522648 -2.248108
v 0.777545 1.523060 -2.264498
v 0.525567 1.523354 -2.276211
v 0.273349 1.523531 -2.283240
v 0.021010 1.523590 -2.285584
v -0.231328 1.523531 -2.283239
v -0.483547 1.523354 -2.276210
v -0.735525 1.523060 -2.264497
v -0.987143 1.522648 -2.248106
v -1.238281 1.522119 -2.227046
v -1.488820 1.521472 -2.201327
v -1.738641 1.520709 -2.170960
vn -0.1376 0.1798 -0.9740
vn -0.1376 -0.1306 -0.9818
vn -0.1380 -0.1100 -0.9843
vn -0.1383 -0.0893 -0.9864
vn -0.1386 -0.0685 -0.9880
vn -0.1389 -0.0478 -0.9892
vn -0.1391 -0.0270 -0.9899
vn -0.1392 -0.0063 -0.9902
vn -0.1392 0.0145 -0.9902
vn -0.1392 0.0353 -0.9896
vn -0.1392 0.0560 -0.9887
vn -0.1391 0.0767 -0.9873
vn -0.1389 0.0974 -0.9855
vn -0.1386 0.1181 -0.9833
vn -0.1383 0.1387 -0.9806
vn -0.1380 0.1593 -0.9775
vn 0.1376 -0.1306 -0.9818
vn 0.1192 -0.1304 -0.9843
vn 0.1009 -0.1303 -0.9863
vn 0.0826 -0.1301 -0.9881
vn 0.0642 -0.1300 -0.9894
vn 0.0459 -0.1299 -0.9905
vn 0.0275 -0.1299 -0.9911
vn 0.0092 -0.1298 -0.9915
vn -0.0092 -0.1298 -0.9915
vn -0.0275 -0.1299 -0.9911
vn -0.0459 -0.1299 -0.9905
vn -0.0642 -0.1300 -0.9894
vn -0.0826 -0.1301 -0.9881
vn -0.1009 -0.1303 -0.9863
vn -0.1192 -0.1304 -0.9843
vn 0.1380 -0.1100 -0.9843
vn 0.1196 -0.1098 -0.9867
vn 0.1012 -0.1096 -0.9888
vn 0.0828 -0.1095 -0.9905
vn 0.0644 -0.1094 -0.9919
vn 0.0460 -0.1093 -0.9929
vn 0.0276 -0.1093 -0.9936
vn 0.0092 -0.1092 -0.9940
vn -0.0092 -0.1092 -0.9940
vn -0.0276 -0.1093 -0.9936
vn -0.0460 -0.1093 -0.9929
vn -0.0644 -0.1094 -0.9919
vn -0.0828 -0.1095 -0.9905
vn -0.1012 -0.1096 -0.9888
vn -0.1196 -0.1098 -0.9867
vn 0.1383 -0.0893 -0.9864
vn 0.1199 -0.0891 -0.9888
vn 0.1015 -0.0890 -0.9909
vn 0.0830 -0.0889 -0.9926
vn 0.0646 -0.0888 -0.9940
vn 0.0461 -0.0887 -0.9950
vn 0.0277 -0.0886 -0.9957
vn 0.0092 -0.0886 -0.9960
vn -0.0092 -0.0886 -0.9960
vn -0.0277 -0.0886 -0.9957
vn -0.0461 -0.0887 -0.9950
vn -0.0646 -0.0888 -0.9940
vn -0.0830 -0.0889 -0.9926
vn -0.1015 -0.0890 -0.9909
vn -0.1199 -0.0891 -0.9888
vn 0.1386 -0.0685 -0.9880
vn 0.1202 -0.0684 -0.9904
vn 0.1017 -0.0683 -0.9925
vn 0.0832 -0.0682 -0.9942
vn 0.0647 -0.0681 -0.9956
vn 0.0462 -0.0680 -0.9966
vn 0.0277 -0.0680 -0.9973
vn 0.0093 -0.0680 -0.9976
vn -0.0093 -0.0680 -0.9976
vn -0.0277 -0.0680 -0.9973
vn -0.0462 -0.0680 -0.9966
vn -0.0647 -0.0681 -0.9956
vn -0.0832 -0.0682 -0.9942
vn -0.1017 -0.0683 -0.9925
vn -0.1202 -0.0684 -0.9904
vn 0.1389 -0.0478 -0.9892
vn 0.1204 -0.0477 -0.9916
vn 0.1019 -0.0476 -0.9937
vn 0.0834 -0.0475 -0.9954
vn 0.0648 -0.0474 -0.9968
vn 0.0463 -0.0474 -0.9978
vn 0.0278 -0.0473 -0.9985
vn 0.0093 -0.0473 -0.9988
vn -0.0093 -0.0473 -0.9988
vn -0.0278 -0.0473 -0.9985
vn -0.0463 -0.0474 -0.9978
vn -0.0649 -0.0474 -0.9968
vn -0.0834 -0.0475 -0.9954
vn -0.1019 -0.0476 -0.9937
vn -0.1204 -0.0477 -0.9916
vn 0.1391 -0.0270 -0.9899
vn 0.1205 -0.0269 -0.9923
vn 0.1020 -0.0268 -0.9944
vn 0.0835 -0.0268 -0.9962
vn 0.0649 -0.0267 -0.9975
vn 0.0464 -0.0267 -0.9986
vn 0.0278 -0.0266 -0.9993
vn 0.0093 -0.0266 -0.9996
vn -0.0093 -0.0266 -0.9996
vn -0.0278 -0.0266 -0.9993
vn -0.0464 -0.0267 -0.9986
vn -0.0649 -0.0267 -0.9975
vn -0.0835 -0.0268 -0.9962
vn -0.1020 -0.0268 -0.9944
vn -0.1205 -0.0269 -0.9923
vn 0.1392 -0.0063 -0.9902
vn 0.1206 -0.0062 -0.9927
vn 0.1021 -0.0061 -0.9948
vn 0.0835 -0.0060 -0.9965
vn 0.0650 -0.0060 -0.9979
vn 0.0464 -0.0059 -0.9989
vn 0.0279 -0.0059 -0.9996
vn 0.0093 -0.0059 -0.9999
vn -0.0093 -0.0059 -0.9999
vn -0.0279 -0.0059 -0.9996
vn -0.0464 -0.0060 -0.9989
vn -0.0650 -0.0060 -0.9979
vn -0.0836 -0.0060 -0.9965
vn -0.1021 -0.0061 -0.9948
vn -0.1206 -0.0062 -0.9927
vn 0.1392 0.0145 -0.9902
vn 0.1207 0.0146 -0.9926
vn 0.1021 0.0146 -0.9947
vn 0.0836 0.0147 -0.9964
vn 0.0650 0.0147 -0.9978
vn 0.0464 0.0147 -0.9988
vn 0.0279 0.0148 -0.9995
vn 0.0093 0.0148 -0.9998
vn -0.0093 0.0148 -0.9998
vn -0.0279 0.0148 -0.9995
vn -0.0464 0.0147 -0.9988
vn -0.0650 0.0147 -0.9978
vn -0.0836 0.0147 -0.9964
vn -0.1021 0.0146 -0.9947
vn -0.1207 0.0146 -0.9926
vn 0.1392 0.0353 -0.9896
vn 0.1207 0.0353 -0.9921
vn 0.1021 0.0354 -0.9941
vn 0.0836 0.0354 -0.9959
vn 0.0650 0.0354 -0.9973
vn 0.0464 0.0354 -0.9983
vn 0.0279 0.0355 -0.9990
vn 0.0093 0.0355 -0.9993
vn -0.0093 0.0355 -0.9993
vn -0.0279 0.0355 -0.9990
vn -0.0464 0.0354 -0.9983
vn -0.0650 0.0354 -0.9973
vn -0.0836 0.0354 -0.9959
vn -0.1021 0.0354 -0.9941
vn -0.1207 0.0353 -0.9921
vn 0.1392 0.0560 -0.9887
vn 0.1206 0.0560 -0.9911
vn 0.1021 0.0561 -0.9932
vn 0.0835 0.0561 -0.9949
vn 0.0650 0.0561 -0.9963
vn 0.0464 0.0561 -0.9973
vn 0.0279 0.0561 -0.9980
vn 0.0093 0.0561 -0.9984
vn -0.0093 0.0561 -0.9984
vn -0.0279 0.0561 -0.9980
vn -0.0464 0.0561 -0.9973
vn -0.0650 0.0561 -0.9963
vn -0.0836 0.0561 -0.9949
vn -0.1021 0.0561 -0.9932
vn -0.1206 0.0560 -0.9911
vn 0.1391 0.0767 -0.9873
vn 0.1205 0.0767 -0.9897
vn 0.1020 0.0768 -0.9918
vn 0.0835 0.0768 -0.9935
vn 0.0649 0.0768 -0.9949
vn 0.0464 0.0768 -0.9960
vn 0.0278 0.0768 -0.9967
vn 0.0093 0.0768 -0.9970
vn -0.0093 0.0768 -0.9970
vn -0.0278 0.0768 -0.9967
vn -0.0464 0.0768 -0.9960
vn -0.0649 0.0768 -0.9949
vn -0.0835 0.0768 -0.9935
vn -0.1020 0.0768 -0.9918
vn -0.1205 0.0767 -0.9897
vn 0.1389 0.0974 -0.9855
vn 0.1204 0.0974 -0.9879
vn 0.1019 0.0974 -0.9900
vn 0.0834 0.0974 -0.9917
vn 0.0648 0.0974 -0.9931
vn 0.0463 0.0974 -0.9942
vn 0.0278 0.0974 -0.9949
vn 0.0093 0.0974 -0.9952
vn -0.0093 0.0974 -0.9952
vn -0.0278 0.0974 -0.9949
vn -0.0463 0.0974 -0.9942
vn -0.0649 0.0974 -0.9931
vn -0.0834 0.0974 -0.9917
vn -0.1019 0.0974 -0.9900
vn -0.1204 0.0974 -0.9879
vn 0.1386 0.1181 -0.9833
vn 0.1202 0.1181 -0.9857
vn 0.1017 0.1180 -0.9878
vn 0.0832 0.1180 -0.9895
vn 0.0647 0.1180 -0.9909
vn 0.0462 0.1180 -0.9919
vn 0.0277 0.1180 -0.9926
vn 0.0092 0.1180 -0.9930
vn -0.0093 0.1180 -0.9930
vn -0.0277 0.1180 -0.9926
vn -0.0462 0.1180 -0.9919
vn -0.0647 0.1180 -0.9909
vn -0.0832 0.1180 -0.9895
vn -0.1017 0.1180 -0.9878
vn -0.1202 0.1181 -0.9857
vn 0.1383 0.1387 -0.9806
vn 0.1199 0.1387 -0.9831
vn 0.1015 0.1386 -0.9851
vn 0.0830 0.1386 -0.9869
vn 0.0646 0.1386 -0.9882
vn 0.0461 0.1386 -0.9893
vn 0.0277 0.1385 -0.9900
vn 0.0092 0.1385 -0.9903
vn -0.0092 0.1385 -0.9903
vn -0.0277 0.1386 -0.9900
vn -0.0461 0.1386 -0.9893
vn -0.0646 0.1386 -0.9882
vn -0.0830 0.1386 -0.9869
vn -0.1015 0.1386 -0.9851
vn -0.1199 0.1387 -0.9831
vn 0.1380 0.1593 -0.9775
vn 0.1196 0.1592 -0.9800
vn 0.1012 0.1592 -0.9820
vn 0.0828 0.1591 -0.9838
vn 0.0644 0.1591 -0.9852
vn 0.0460 0.1591 -0.9862
vn 0.0276 0.1590 -0.9869
vn 0.0092 0.1590 -0.9872
vn -0.0092 0.1590 -0.9872
vn -0.0276 0.1590 -0.9869
vn -0.0460 0.1591 -0.9862
vn -0.0644 0.1591 -0.9852
vn -0.0828 0.1591 -0.9838
vn -0.1012 0.1592 -0.9820
vn -0.1196 0.1592 -0.9800
vn 0.1376 0.1798 -0.9740
vn 0.1192 0.1797 -0.9765
vn 0.1009 0.1796 -0.9785
vn 0.0826 0.1796 -0.9803
vn 0.0642 0.1796 -0.9816
vn 0.0459 0.1795 -0.9827
vn 0.0275 0.1795 -0.9834
vn 0.0092 0.1795 -0.9837
vn -0.0092 0.1795 -0.9837
vn -0.0275 0.1795 -0.9834
vn -0.0459 0.1795 -0.9827
vn -0.0642 0.1796 -0.9816
vn -0.0826 0.1796 -0.9803
vn -0.1009 0.1796 -0.9785
vn -0.1192 0.1797 -0.9765
vt 0.301893 0.723006
vt 0.321545 0.723143
vt 0.321327 0.735849
vt 0.301718 0.735706
vt 0.301718 0.532653
vt 0.321327 0.532511
vt 0.321545 0.545216
vt 0.301893 0.545354
vt 0.321739 0.557925
vt 0.302051 0.558049
vt 0.321907 0.570635
vt 0.302188 0.570743
vt 0.322045 0.583345
vt 0.302301 0.583433
vt 0.322152 0.596056
vt 0.302391 0.596122
vt 0.322229 0.608765
vt 0.302455 0.608809
vt 0.322273 0.621474
vt 0.302493 0.621495
vt 0.322287 0.634180
vt 0.302506 0.634180
vt 0.322273 0.646886
vt 0.302493 0.646865
vt 0.322229 0.659594
vt 0.302455 0.659550
vt 0.322152 0.672304
vt 0.302391 0.672237
vt 0.322045 0.685014
vt 0.302301 0.684926
vt 0.321907 0.697725
vt 0.302188 0.697617
vt 0.321739 0.710435
vt 0.302051 0.710310
vt 0.007133 0.532511
vt 0.026742 0.532653
vt 0.026567 0.545354
vt 0.006915 0.545217
vt 0.046366 0.532761
vt 0.046223 0.545456
vt 0.066000 0.532844
vt 0.065885 0.545535
vt 0.085642 0.532908
vt 0.085552 0.545595
vt 0.105289 0.532958
vt 0.105221 0.545641
vt 0.124938 0.532995
vt 0.124892 0.545673
vt 0.144586 0.533020
vt 0.144562 0.545694
vt 0.164230 0.533031
vt 0.164230 0.545702
vt 0.183874 0.533020
vt 0.183898 0.545694
vt 0.203522 0.532995
vt 0.203568 0.545673
vt 0.223171 0.532958
vt 0.223239 0.545641
vt 0.242818 0.532908
vt 0.242909 0.545595
vt 0.262460 0.532844
vt 0.262575 0.545535
vt 0.282094 0.532761
vt 0.282237 0.545456
vt 0.026409 0.558050
vt 0.006721 0.557925
vt 0.046095 0.558144
vt 0.065782 0.558215
vt 0.085471 0.558270
vt 0.105161 0.558311
vt 0.124851 0.558339
vt 0.144541 0.558357
vt 0.164230 0.558362
vt 0.183919 0.558357
vt 0.203609 0.558339
vt 0.223299 0.558311
vt 0.242989 0.558270
vt 0.262678 0.558215
vt 0.282365 0.558144
vt 0.026273 0.570743
vt 0.006554 0.570635
vt 0.045984 0.570825
vt 0.065693 0.570888
vt 0.085402 0.570935
vt 0.105109 0.570970
vt 0.124817 0.570995
vt 0.144524 0.571009
vt 0.164230 0.571013
vt 0.183936 0.571009
vt 0.203643 0.570995
vt 0.223351 0.570970
vt 0.243059 0.570935
vt 0.262767 0.570888
vt 0.282476 0.570825
vt 0.026159 0.583434
vt 0.006415 0.583345
vt 0.045892 0.583501
vt 0.065619 0.583553
vt 0.085344 0.583593
vt 0.105067 0.583622
vt 0.124788 0.583642
vt 0.144510 0.583653
vt 0.164230 0.583656
vt 0.183951 0.583653
vt 0.203672 0.583642
vt 0.223394 0.583622
vt 0.243116 0.583593
vt 0.262841 0.583553
vt 0.282568 0.583501
vt 0.026070 0.596122
vt 0.006308 0.596056
vt 0.045819 0.596174
vt 0.065561 0.596214
vt 0.085298 0.596244
vt 0.105033 0.596267
vt 0.124766 0.596282
vt 0.144498 0.596290
vt 0.164230 0.596293
vt 0.183962 0.596290
vt 0.203694 0.596282
vt 0.223427 0.596267
vt 0.243162 0.596244
vt 0.262900 0.596214
vt 0.282641 0.596174
vt 0.026005 0.608810
vt 0.006232 0.608765
vt 0.045766 0.608844
vt 0.065518 0.608871
vt 0.085265 0.608892
vt 0.105009 0.608907
vt 0.124750 0.608917
vt 0.144490 0.608923
vt 0.164230 0.608924
vt 0.183970 0.608923
vt 0.203710 0.608917
vt 0.223452 0.608907
vt 0.243195 0.608892
vt 0.262942 0.608871
vt 0.282694 0.608844
vt 0.025967 0.621495
vt 0.006187 0.621474
vt 0.045734 0.621513
vt 0.065492 0.621526
vt 0.085245 0.621537
vt 0.104994 0.621544
vt 0.124740 0.621549
vt 0.144485 0.621552
vt 0.164230 0.621553
vt 0.183975 0.621552
vt 0.203720 0.621549
vt 0.223467 0.621544
vt 0.243215 0.621537
vt 0.262968 0.621526
vt 0.282726 0.621513
vt 0.025954 0.634180
vt 0.006174 0.634180
vt 0.045723 0.634180
vt 0.065483 0.634180
vt 0.085238 0.634180
vt 0.104988 0.634180
vt 0.124736 0.634180
vt 0.144483 0.634180
vt 0.164230 0.634180
vt 0.183977 0.634180
vt 0.203724 0.634180
vt 0.223472 0.634180
vt 0.243222 0.634180
vt 0.262977 0.634180
vt 0.282737 0.634180
vt 0.025967 0.646865
vt 0.006187 0.646886
vt 0.045734 0.646847
vt 0.065492 0.646833
vt 0.085245 0.646823
vt 0.104994 0.646816
vt 0.124740 0.646810
vt 0.144485 0.646808
vt 0.164230 0.646807
vt 0.183975 0.646808
vt 0.203720 0.646810
vt 0.223467 0.646816
vt 0.243215 0.646823
vt 0.262968 0.646833
vt 0.282726 0.646847
vt 0.026005 0.659550
vt 0.006232 0.659594
vt 0.045766 0.659515
vt 0.065518 0.659488
vt 0.085265 0.659468
vt 0.105009 0.659453
vt 0.124750 0.659443
vt 0.144490 0.659437
vt 0.164230 0.659436
vt 0.183970 0.659437
vt 0.203710 0.659443
vt 0.223452 0.659453
vt 0.243195 0.659468
vt 0.262942 0.659488
vt 0.282694 0.659515
vt 0.026070 0.672237
vt 0.006308 0.672304
vt 0.045819 0.672185
vt 0.065561 0.672145
vt 0.085298 0.672115
vt 0.105033 0.672093
vt 0.124766 0.672078
vt 0.144498 0.672069
vt 0.164230 0.672067
vt 0.183962 0.672069
vt 0.203694 0.672078
vt 0.223427 0.672093
vt 0.243162 0.672115
vt 0.262900 0.672145
vt 0.282641 0.672185
vt 0.026159 0.684926
vt 0.006415 0.685014
vt 0.045892 0.684858
vt 0.065619 0.684806
vt 0.085344 0.684767
vt 0.105067 0.684738
vt 0.124788 0.684718
vt 0.144509 0.684707
vt 0.164230 0.684703
vt 0.183951 0.684707
vt 0.203672 0.684718
vt 0.223394 0.684738
vt 0.243116 0.684767
vt 0.262841 0.684806
vt 0.282568 0.684858
vt 0.026273 0.697617
vt 0.006554 0.697725
vt 0.045984 0.697535
vt 0.065693 0.697472
vt 0.085402 0.697425
vt 0.105109 0.697390
vt 0.124817 0.697365
vt 0.144524 0.697351
vt 0.164230 0.697346
vt 0.183936 0.697351
vt 0.203643 0.697365
vt 0.223351 0.697390
vt 0.243059 0.697425
vt 0.262767 0.697472
vt 0.282476 0.697535
vt 0.026409 0.710310
vt 0.006721 0.710435
vt 0.046095 0.710216
vt 0.065782 0.710144
vt 0.085471 0.710090
vt 0.105161 0.710049
vt 0.124851 0.710020
vt 0.144541 0.710003
vt 0.164230 0.709997
vt 0.183919 0.710003
vt 0.203609 0.710020
vt 0.223299 0.710049
vt 0.242989 0.710090
vt 0.262678 0.710144
vt 0.282365 0.710216
vt 0.026567 0.723006
vt 0.006915 0.723143
vt 0.046223 0.722903
vt 0.065885 0.722825
vt 0.085552 0.722765
vt 0.105221 0.722719
vt 0.124892 0.722686
vt 0.144562 0.722665
vt 0.164230 0.722658
vt 0.183898 0.722665
vt 0.203568 0.722686
vt 0.223239 0.722719
vt 0.242909 0.722765
vt 0.262575 0.722825
vt 0.282237 0.722903
vt 0.026743 0.735706
vt 0.007133 0.735849
vt 0.046366 0.735599
vt 0.066000 0.735516
vt 0.085642 0.735451
vt 0.105289 0.735402
vt 0.124938 0.735365
vt 0.144586 0.735340
vt 0.164230 0.735329
vt 0.183874 0.735340
vt 0.203522 0.735365
vt 0.223171 0.735402
vt 0.242818 0.735451
vt 0.262460 0.735516
vt 0.282094 0.735599
s 0
f 289/1/1 20/2/1 3/3/1 64/4/1
f 5/5/2 1/6/2 34/7/2 79/8/2
f 79/8/3 34/7/3 33/9/3 94/10/3
f 94/10/4 33/9/4 32/11/4 109/12/4
f 109/12/5 32/11/5 31/13/5 124/14/5
f 124/14/6 31/13/6 30/15/6 139/16/6
f 139/16/7 30/15/7 29/17/7 154/18/7
f 154/18/8 29/17/8 28/19/8 169/20/8
f 169/20/9 28/19/9 27/21/9 184/22/9
f 184/22/10 27/21/10 26/23/10 199/24/10
f 199/24/11 26/23/11 25/25/11 214/26/11
f 214/26/12 25/25/12 24/27/12 229/28/12
f 229/28/13 24/27/13 23/29/13 244/30/13
f 244/30/14 23/29/14 22/31/14 259/32/14
f 259/32/15 22/31/15 21/33/15 274/34/15
f 274/34/16 21/33/16 20/2/16 289/1/16
f 2/35/17 19/36/17 65/37/17 49/38/17
f 19/36/18 18/39/18 66/40/18 65/37/18
f 18/39/19 17/41/19 67/42/19 66/40/19
f 17/41/20 16/43/20 68/44/20 67/42/20
f 16/43/21 15/45/21 69/46/21 68/44/21
f 15/45/22 14/47/22 70/48/22 69/46/22
f 14/47/23 13/49/23 71/50/23 70/48/23
f 13/49/24 12/51/24 72/52/24 71/50/24
f 12/51/25 11/53/25 73/54/25 72/52/25
f 11/53/26 10/55/26 74/56/26 73/54/26
f 10/55/27 9/57/27 75/58/27 74/56/27
f 9/57/28 8/59/28 76/60/28 75/58/28
f 8/59/29 7/61/29 77/62/29 76/60/29
f 7/61/30 6/63/30 78/64/30 77/62/30
f 6/63/31 5/5/31 79/8/31 78/64/31
f 49/38/32 65/37/32 80/65/32 48/66/32
f 65/37/33 66/40/33 81/67/33 80/65/33
f 66/40/34 67/42/34 82/68/34 81/67/34
f 67/42/35 68/44/35 83/69/35 82/68/35
f 68/44/36 69/46/36 84/70/36 83/69/36
f 69/46/37 70/48/37 85/71/37 84/70/37
f 70/48/38 71/50/38 86/72/38 85/71/38
f 71/50/39 72/52/39 87/73/39 86/72/39
f 72/52/40 73/54/40 88/74/40 87/73/40
f 73/54/41 74/56/41 89/75/41 88/74/41
f 74/56/42 75/58/42 90/76/42 89/75/42
f 75/58/43 76/60/43 91/77/43 90/76/43
f 76/60/44 77/62/44 92/78/44 91/77/44
f 77/62/45 78/64/45 93/79/45 92/78/45
f 78/64/46 79/8/46 94/10/46 93/79/46
f 48/66/47 80/65/47 95/80/47 47/81/47
f 80/65/48 81/67/48 96/82/48 95/80/48
f 81/67/49 82/68/49 97/83/49 96/82/49
f 82/68/50 83/69/50 98/84/50 97/83/50
f 83/69/51 84/70/51 99/85/51 98/84/51
f 84/70/52 85/71/52 100/86/52 99/85/52
f 85/71/53 86/72/53 101/87/53 100/86/53
f 86/72/54 87/73/54 102/88/54 101/87/54
f 87/73/55 88/74/55 103/89/55 102/88/55
f 88/74/56 89/75/56 104/90/56 103/89/56
f 89/75/57 90/76/57 105/91/57 104/90/57
f 90/76/58 91/77/58 106/92/58 105/91/58
f 91/77/59 92/78/59 107/93/59 106/92/59
f 92/78/60 93/79/60 108/94/60 107/93/60
f 93/79/61 94/10/61 109/12/61 108/94/61
f 47/81/62 95/80/62 110/95/62 46/96/62
f 95/80/63 96/82/63 111/97/63 110/95/63
f 96/82/64 97/83/64 112/98/64 111/97/64
f 97/83/65 98/84/65 113/99/65 112/98/65
f 98/84/66 99/85/66 114/100/66 113/99/66
f 99/85/67 100/86/67 115/101/67 114/100/67
f 100/86/68 101/87/68 116/102/68 115/101/68
f 101/87/69 102/88/69 117/103/69 116/102/69
f 102/88/70 103/89/70 118/104/70 117/103/70
f 103/89/71 104/90/71 119/105/71 118/104/71
f 104/90/72 105/91/72 120/106/72 119/105/72
f 105/91/73 106/92/73 121/107/73 120/106/73
f 106/92/74 107/93/74 122/108/74 121/107/74
f 107/93/75 108/94/75 123/109/75 122/108/75
f 108/94/76 109/12/76 124/14/76 123/109/76
f 46/96/77 110/95/77 125/110/77 45/111/77
f 110/95/78 111/97/78 126/112/78 125/110/78
f 111/97/79 112/98/79 127/113/79 126/112/79
f 112/98/80 113/99/80 128/114/80 127/113/80
f 113/99/81 114/100/81 129/115/81 128/114/81
f 114/100/82 115/101/82 130/116/82 129/115/82
f 115/101/83 116/102/83 131/117/83 130/116/83
f 116/102/84 117/103/84 132/118/84 131/117/84
f 117/103/85 118/104/85 133/119/85 132/118/85
f 118/104/86 119/105/86 134/120/86 133/119/86
f 119/105/87 120/106/87 135/121/87 134/120/87
f 120/106/88 121/107/88 136/122/88 135/121/88
f 121/107/89 122/108/89 137/123/89 136/122/89
f 122/108/90 123/109/90 138/124/90 137/123/90
f 123/109/91 124/14/91 139/16/91 138/124/91
f 45/111/92 125/110/92 140/125/92 44/126/92
f 125/110/93 126/112/93 141/127/93 140/125/93
f 126/112/94 127/113/94 142/128/94 141/127/94
f 127/113/95 128/114/95 143/129/95 142/128/95
f 128/114/96 129/115/96 144/130/96 143/129/96
f 129/115/97 130/116/97 145/131/97 144/130/97
f 130/116/98 131/117/98 146/132/98 145/131/98
f 131/117/99 132/118/99 147/133/99 146/132/99
f 132/118/100 133/119/100 148/134/100 147/133/100
f 133/119/101 134/120/101 149/135/101 148/134/101
f 134/120/102 135/121/102 150/136/102 149/135/102
f 135/121/103 136/122/103 151/137/103 150/136/103
f 136/122/104 137/123/104 152/138/104 151/137/104
f 137/123/105 138/124/105 153/139/105 152/138/105
f 138/124/106 139/16/106 154/18/106 153/139/106
f 44/126/107 140/125/107 155/140/107 43/141/107
f 140/125/108 141/127/108 156/142/108 155/140/108
f 141/127/109 142/128/109 157/143/109 156/142/109
f 142/128/110 143/129/110 158/144/110 157/143/110
f 143/129/111 144/130/111 159/145/111 158/144/111
f 144/130/112 145/131/112 160/146/112 159/145/112
f 145/131/113 146/132/113 161/147/113 160/146/113
f 146/132/114 147/133/114 162/148/114 161/147/114
f 147/133/115 148/134/115 163/149/115 162/148/115
f 148/134/116 149/135/116 164/150/116 163/149/116
f 149/135/117 150/136/117 165/151/117 164/150/117
f 150/136/118 151/137/118 166/152/118 165/151/118
f 151/137/119 152/138/119 167/153/119 166/152/119
f 152/138/120 153/139/120 168/154/120 167/153/120
f 153/139/121 154/18/121 169/20/121 168/154/121
f 43/141/122 155/140/122 170/155/122 42/156/122
f 155/140/123 156/142/123 171/157/123 170/155/123
f 156/142/124 157/143/124 172/158/124 171/157/124
f 157/143/125 158/144/125 173/159/125 172/158/125
f 158/144/126 159/145/126 174/160/126 173/159/126
f 159/145/127 160/146/127 175/161/127 174/160/127
f 160/146/128 161/147/128 176/162/128 175/161/128
f 161/147/129 162/148/129 177/163/129 176/162/129
f 162/148/130 163/149/130 178/164/130 177/163/130
f 163/149/131 164/150/131 179/165/131 178/164/131
f 164/150/132 165/151/132 180/166/132 179/165/132
f 165/151/133 166/152/133 181/167/133 180/166/133
f 166/152/134 167/153/134 182/168/134 181/167/134
f 167/153/135 168/154/135 183/169/135 182/168/135
f 168/154/136 169/20/136 184/22/136 183/169/136
f 42/156/137 170/155/137 185/170/137 41/171/137
f 170/155/138 171/157/138 186/172/138 185/170/138
f 171/157/139 172/158/139 187/173/139 186/172/139
f 172/158/140 173/159/140 188/174/140 187/173/140
f 173/159/141 174/160/141 189/175/141 188/174/141
f 174/160/142 175/161/142 190/176/142 189/175/142
f 175/161/143 176/162/143 191/177/143 190/176/143
f 176/162/144 177/163/144 192/178/144 191/177/144
f 177/163/145 178/164/145 193/179/145 192/178/145
f 178/164/146 179/165/146 194/180/146 193/179/146
f 179/165/147 180/166/147 195/181/147 194/180/147
f 180/166/148 181/167/148 196/182/148 195/181/148
f 181/167/149 182/168/149 197/183/149 196/182/149
f 182/168/150 183/169/150 198/184/150 197/183/150
f 183/169/151 184/22/151 199/24/151 198/184/151
f 41/171/152 185/170/152 200/185/152 40/186/152
f 185/170/153 186/172/153 201/187/153 200/185/153
f 186/172/154 187/173/154 202/188/154 201/187/154
f 187/173/155 188/174/155 203/189/155 202/188/155
f 188/174/156 189/175/156 204/190/156 203/189/156
f 189/175/157 190/176/157 205/191/157 204/190/157
f 190/176/158 191/177/158 206/192/158 205/191/158
f 191/177/159 192/178/159 207/193/159 206/192/159
f 192/178/160 193/179/160 208/194/160 207/193/160
f 193/179/161 194/180/161 209/195/161 208/194/161
f 194/180/162 195/181/162 210/196/162 209/195/162
f 195/181/163 196/182/163 211/197/163 210/196/163
f 196/182/164 197/183/164 212/198/164 211/197/164
f 197/183/165 198/184/165 213/199/165 212/198/165
f 198/184/166 199/24/166 214/26/166 213/199/166
f 40/186/167 200/185/167 215/200/167 39/201/167
f 200/185/168 201/187/168 216/202/168 215/200/168
f 201/187/169 202/188/169 217/203/169 216/202/169
f 202/188/170 203/189/170 218/204/170 217/203/170
f 203/189/171 204/190/171 219/205/171 218/204/171
f 204/190/172 205/191/172 220/206/172 219/205/172
f 205/191/173 206/192/173 221/207/173 220/206/173
f 206/192/174 207/193/174 222/208/174 221/207/174
f 207/193/175 208/194/175 223/209/175 222/208/175
f 208/194/176 209/195/176 224/210/176 223/209/176
f 209/195/177 210/196/177 225/211/177 224/210/177
f 210/196/178 211/197/178 226/212/178 225/211/178
f 211/197/179 212/198/179 227/213/179 226/212/179
f 212/198/180 213/199/180 228/214/180 227/213/180
f 213/199/181 214/26/181 229/28/181 228/214/181
f 39/201/182 215/200/182 230/215/182 38/216/182
f 215/200/183 216/202/183 231/217/183 230/215/183
f 216/202/184 217/203/184 232/218/184 231/217/184
f 217/203/185 218/204/185 233/219/185 232/218/185
f 218/204/186 219/205/186 234/220/186 233/219/186
f 219/205/187 220/206/187 235/221/187 234/220/187
f 220/206/188 221/207/188 236/222/188 235/221/188
f 221/207/189 222/208/189 237/223/189 236/222/189
f 222/208/190 223/209/190 238/224/190 237/223/190
f 223/209/191 224/210/191 239/225/191 238/224/191
f 224/210/192 225/211/192 240/226/192 239/225/192
f 225/211/193 226/212/193 241/227/193 240/226/193
f 226/212/194 227/213/194 242/228/194 241/227/194
f 227/213/195 228/214/195 243/229/195 242/228/195
f 228/214/196 229/28/196 244/30/196 243/229/196
f 38/216/197 230/215/197 245/230/197 37/231/197
f 230/215/198 231/217/198 246/232/198 245/230/198
f 231/217/199 232/218/199 247/233/199 246/232/199
f 232/218/200 233/219/200 248/234/200 247/233/200
f 233/219/201 234/220/201 249/235/201 248/234/201
f 234/220/202 235/221/202 250/236/202 249/235/202
f 235/221/203 236/222/203 251/237/203 250/236/203
f 236/222/204 237/223/204 252/238/204 251/237/204
f 237/223/205 238/224/205 253/239/205 252/238/205
f 238/224/206 239/225/206 254/240/206 253/239/206
f 239/225/207 240/226/207 255/241/207 254/240/207
f 240/226/208 241/227/208 256/242/208 255/241/208
f 241/227/209 242/228/209 257/243/209 256/242/209
f 242/228/210 243/229/210 258/244/210 257/243/210
f 243/229/211 244/30/211 259/32/211 258/244/211
f 37/231/212 245/230/212 260/245/212 36/246/212
f 245/230/213 246/232/213 261/247/213 260/245/213
f 246/232/214 247/233/214 262/248/214 261/247/214
f 247/233/215 248/234/215 263/249/215 262/248/215
f 248/234/216 249/235/216 264/250/216 263/249/216
f 249/235/217 250/236/217 265/251/217 264/250/217
f 250/236/218 251/237/218 266/252/218 265/251/218
f 251/237/219 252/238/219 267/253/219 266/252/219
f 252/238/220 253/239/220 268/254/220 267/253/220
f 253/239/221 254/240/221 269/255/221 268/254/221
f 254/240/222 255/241/222 270/256/222 269/255/222
f 255/241/223 256/242/223 271/257/223 270/256/223
f 256/242/224 257/243/224 272/258/224 271/257/224
f 257/243/225 258/244/225 273/259/225 272/258/225
f 258/244/226 259/32/226 274/34/226 273/259/226
f 36/246/227 260/245/227 275/260/227 35/261/227
f 260/245/228 261/247/228 276/262/228 275/260/228
f 261/247/229 262/248/229 277/263/229 276/262/229
f 262/248/230 263/249/230 278/264/230 277/263/230
f 263/249/231 264/250/231 279/265/231 278/264/231
f 264/250/232 265/251/232 280/266/232 279/265/232
f 265/251/233 266/252/233 281/267/233 280/266/233
f 266/252/234 267/253/234 282/268/234 281/267/234
f 267/253/235 268/254/235 283/269/235 282/268/235
f 268/254/236 269/255/236 284/270/236 283/269/236
f 269/255/237 270/256/237 285/271/237 284/270/237
f 270/256/238 271/257/238 286/272/238 285/271/238
f 271/257/239 272/258/239 287/273/239 286/272/239
f 272/258/240 273/259/240 288/274/240 287/273/240
f 273/259/241 274/34/241 289/1/241 288/274/241
f 35/261/242 275/260/242 50/275/242 4/276/242
f 275/260/243 276/262/243 51/277/243 50/275/243
f 276/262/244 277/263/244 52/278/244 51/277/244
f 277/263/245 278/264/245 53/279/245 52/278/245
f 278/264/246 279/265/246 54/280/246 53/279/246
f 279/265/247 280/266/247 55/281/247 54/280/247
f 280/266/248 281/267/248 56/282/248 55/281/248
f 281/267/249 282/268/249 57/283/249 56/282/249
f 282/268/250 283/269/250 58/284/250 57/283/250
f 283/269/251 284/270/251 59/285/251 58/284/251
f 284/270/252 285/271/252 60/286/252 59/285/252
f 285/271/253 286/272/253 61/287/253 60/286/253
f 286/272/254 287/273/254 62/288/254 61/287/254
f 287/273/255 288/274/255 63/289/255 62/288/255
f 288/274/256 289/1/256 64/4/256 63/289/256
